REM DIRINDEX 1\2\6,1\2\7,1\2\8,1\3\9,1\3\10,1\3\11,1\4\12,1\4\13,1\4\14,1\5\15,1\5\16,1\5\17,1\5\18
REM DIRNAME folder01,folder02,folder03,folder04,folder05,folder06,folder07,folder08,folder09,folder10,folder11,folder12,folder13,folder14,folder15,folder16,folder17,folder18
TITLE ""
FILE "" MP3
  TRACK 01 AUDIO
    TITLE "16:cjc019_5801"
    INDEX 01 00:00:00
  TRACK 02 AUDIO
    TITLE "0:"
    INDEX 01 00:01:13
  TRACK 03 AUDIO
    TITLE "18:cjc019_5802"
    INDEX 01 00:01:71
  TRACK 04 AUDIO
    TITLE "0:"
    INDEX 01 00:05:30
  TRACK 05 AUDIO
    TITLE "17:cjc019_5803"
    INDEX 01 00:06:06
  TRACK 06 AUDIO
    TITLE "0:"
    INDEX 01 00:07:27
  TRACK 07 AUDIO
    TITLE "16:cjc019_5804"
    INDEX 01 00:09:12
  TRACK 08 AUDIO
    TITLE "0:"
    INDEX 01 00:10:33
  TRACK 09 AUDIO
    TITLE "18:cjc019_5805"
    INDEX 01 00:11:13
  TRACK 10 AUDIO
    TITLE "0:"
    INDEX 01 00:15:19
  TRACK 11 AUDIO
    TITLE "17:cjc019_5806"
    INDEX 01 00:15:72
  TRACK 12 AUDIO
    TITLE "0:"
    INDEX 01 00:17:21
  TRACK 13 AUDIO
    TITLE "16:cjc019_5807"
    INDEX 01 00:19:07
  TRACK 14 AUDIO
    TITLE "0:"
    INDEX 01 00:20:10
  TRACK 15 AUDIO
    TITLE "18:cjc019_5808"
    INDEX 01 00:20:69
  TRACK 16 AUDIO
    TITLE "0:"
    INDEX 01 00:23:10
  TRACK 17 AUDIO
    TITLE "17:cjc019_5809"
    INDEX 01 00:23:71
  TRACK 18 AUDIO
    TITLE "0:"
    INDEX 01 00:25:03
  TRACK 19 AUDIO
    TITLE "16:cjc019_5810"
    INDEX 01 00:26:62
  TRACK 20 AUDIO
    TITLE "0:"
    INDEX 01 00:28:00
  TRACK 21 AUDIO
    TITLE "18:cjc019_5811"
    INDEX 01 00:28:59
  TRACK 22 AUDIO
    TITLE "0:"
    INDEX 01 00:35:68
  TRACK 23 AUDIO
    TITLE "17:cjc019_5812"
    INDEX 01 00:36:46
  TRACK 24 AUDIO
    TITLE "0:"
    INDEX 01 00:37:61
  TRACK 25 AUDIO
    TITLE "16:cjc019_5813"
    INDEX 01 00:39:45
  TRACK 26 AUDIO
    TITLE "0:"
    INDEX 01 00:41:02
  TRACK 27 AUDIO
    TITLE "18:cjc019_5814"
    INDEX 01 00:41:57
  TRACK 28 AUDIO
    TITLE "0:"
    INDEX 01 00:43:21
  TRACK 29 AUDIO
    TITLE "17:cjc019_5815"
    INDEX 01 00:44:01
  TRACK 30 AUDIO
    TITLE "0:"
    INDEX 01 00:45:35
  TRACK 31 AUDIO
    TITLE "16:cjc019_5816"
    INDEX 01 00:47:19
  TRACK 32 AUDIO
    TITLE "0:"
    INDEX 01 00:48:30
  TRACK 33 AUDIO
    TITLE "18:cjc019_5817"
    INDEX 01 00:49:12
  TRACK 34 AUDIO
    TITLE "0:"
    INDEX 01 00:52:00
  TRACK 35 AUDIO
    TITLE "17:cjc019_5818"
    INDEX 01 00:52:57
  TRACK 36 AUDIO
    TITLE "0:"
    INDEX 01 00:53:70
  TRACK 37 AUDIO
    TITLE "16:cjc019_5819"
    INDEX 01 00:55:53
  TRACK 38 AUDIO
    TITLE "0:"
    INDEX 01 00:56:61
  TRACK 39 AUDIO
    TITLE "18:cjc019_5820"
    INDEX 01 00:57:39
  TRACK 40 AUDIO
    TITLE "0:"
    INDEX 01 01:00:68
  TRACK 41 AUDIO
    TITLE "17:cjc019_5821"
    INDEX 01 01:01:46
  TRACK 42 AUDIO
    TITLE "0:"
    INDEX 01 01:02:57
  TRACK 43 AUDIO
    TITLE "16:cjc019_5822"
    INDEX 01 01:04:43
  TRACK 44 AUDIO
    TITLE "0:"
    INDEX 01 01:05:64
  TRACK 45 AUDIO
    TITLE "18:cjc019_5823"
    INDEX 01 01:06:43
  TRACK 46 AUDIO
    TITLE "0:"
    INDEX 01 01:11:02
  TRACK 47 AUDIO
    TITLE "17:cjc019_5824"
    INDEX 01 01:11:52
  TRACK 48 AUDIO
    TITLE "0:"
    INDEX 01 01:13:04
  TRACK 49 AUDIO
    TITLE "16:cjc019_5825"
    INDEX 01 01:14:65
  TRACK 50 AUDIO
    TITLE "0:"
    INDEX 01 01:16:14
  TRACK 51 AUDIO
    TITLE "18:cjc019_5826"
    INDEX 01 01:17:00
  TRACK 52 AUDIO
    TITLE "0:"
    INDEX 01 01:22:50
  TRACK 53 AUDIO
    TITLE "17:cjc019_5827"
    INDEX 01 01:23:30
  TRACK 54 AUDIO
    TITLE "0:"
    INDEX 01 01:24:55
  TRACK 55 AUDIO
    TITLE "16:cjc019_5828"
    INDEX 01 01:26:50
  TRACK 56 AUDIO
    TITLE "0:"
    INDEX 01 01:27:69
  TRACK 57 AUDIO
    TITLE "18:cjc019_5829"
    INDEX 01 01:28:57
  TRACK 58 AUDIO
    TITLE "0:"
    INDEX 01 01:32:25
  TRACK 59 AUDIO
    TITLE "17:cjc019_5830"
    INDEX 01 01:32:74
  TRACK 60 AUDIO
    TITLE "0:"
    INDEX 01 01:34:20
  TRACK 61 AUDIO
    TITLE "16:cjc019_5831"
    INDEX 01 01:35:73
  TRACK 62 AUDIO
    TITLE "0:"
    INDEX 01 01:37:26
  TRACK 63 AUDIO
    TITLE "18:cjc019_5832"
    INDEX 01 01:38:04
  TRACK 64 AUDIO
    TITLE "0:"
    INDEX 01 01:39:43
  TRACK 65 AUDIO
    TITLE "17:cjc019_5833"
    INDEX 01 01:40:25
  TRACK 66 AUDIO
    TITLE "0:"
    INDEX 01 01:41:59
  TRACK 67 AUDIO
    TITLE "16:cjc019_5834"
    INDEX 01 01:43:43
  TRACK 68 AUDIO
    TITLE "0:"
    INDEX 01 01:44:54
  TRACK 69 AUDIO
    TITLE "18:cjc019_5835"
    INDEX 01 01:45:36
  TRACK 70 AUDIO
    TITLE "0:"
    INDEX 01 01:49:22
  TRACK 71 AUDIO
    TITLE "17:cjc019_5836"
    INDEX 01 01:49:69
  TRACK 72 AUDIO
    TITLE "0:"
    INDEX 01 01:51:09
  TRACK 73 AUDIO
    TITLE "16:cjc019_5837"
    INDEX 01 01:52:67
  TRACK 74 AUDIO
    TITLE "0:"
    INDEX 01 01:54:11
  TRACK 75 AUDIO
    TITLE "18:cjc019_5838"
    INDEX 01 01:54:68
  TRACK 76 AUDIO
    TITLE "0:"
    INDEX 01 01:58:66
  TRACK 77 AUDIO
    TITLE "17:cjc019_5839"
    INDEX 01 01:59:50
  TRACK 78 AUDIO
    TITLE "0:"
    INDEX 01 02:00:72
  TRACK 79 AUDIO
    TITLE "16:cjc019_5840"
    INDEX 01 02:02:56
  TRACK 80 AUDIO
    TITLE "0:"
    INDEX 01 02:04:10
  TRACK 81 AUDIO
    TITLE "18:cjc019_5841"
    INDEX 01 02:04:66
  TRACK 82 AUDIO
    TITLE "0:"
    INDEX 01 02:08:39
  TRACK 83 AUDIO
    TITLE "17:cjc019_5842"
    INDEX 01 02:09:15
  TRACK 84 AUDIO
    TITLE "0:"
    INDEX 01 02:10:40
  TRACK 85 AUDIO
    TITLE "16:cjc019_5843"
    INDEX 01 02:12:21
  TRACK 86 AUDIO
    TITLE "0:"
    INDEX 01 02:13:40
  TRACK 87 AUDIO
    TITLE "18:cjc019_5844"
    INDEX 01 02:14:24
  TRACK 88 AUDIO
    TITLE "0:"
    INDEX 01 02:18:06
  TRACK 89 AUDIO
    TITLE "17:cjc019_5845"
    INDEX 01 02:18:59
  TRACK 90 AUDIO
    TITLE "0:"
    INDEX 01 02:20:09
  TRACK 91 AUDIO
    TITLE "16:cjc019_5846"
    INDEX 01 02:21:65
  TRACK 92 AUDIO
    TITLE "0:"
    INDEX 01 02:23:01
  TRACK 93 AUDIO
    TITLE "18:cjc019_5847"
    INDEX 01 02:23:56
  TRACK 94 AUDIO
    TITLE "0:"
    INDEX 01 02:25:37
  TRACK 95 AUDIO
    TITLE "17:cjc019_5848"
    INDEX 01 02:26:17
  TRACK 96 AUDIO
    TITLE "0:"
    INDEX 01 02:27:28
  TRACK 97 AUDIO
    TITLE "16:cjc019_5849"
    INDEX 01 02:29:11
  TRACK 98 AUDIO
    TITLE "0:"
    INDEX 01 02:30:36
  TRACK 99 AUDIO
    TITLE "18:cjc019_5850"
    INDEX 01 02:31:12
  TRACK 100 AUDIO
    TITLE "0:"
    INDEX 01 02:34:36
  TRACK 101 AUDIO
    TITLE "17:cjc019_5851"
    INDEX 01 02:35:10
  TRACK 102 AUDIO
    TITLE "0:"
    INDEX 01 02:36:37
  TRACK 103 AUDIO
    TITLE "16:cjc019_5852"
    INDEX 01 02:38:22
  TRACK 104 AUDIO
    TITLE "0:"
    INDEX 01 02:39:41
  TRACK 105 AUDIO
    TITLE "18:cjc019_5853"
    INDEX 01 02:40:21
  TRACK 106 AUDIO
    TITLE "0:"
    INDEX 01 02:43:17
  TRACK 107 AUDIO
    TITLE "17:cjc019_5854"
    INDEX 01 02:43:72
  TRACK 108 AUDIO
    TITLE "0:"
    INDEX 01 02:45:22
